<svg xmlns="http://www.w3.org/2000/svg" viewBox="0 0 560.62 569.38"><defs><style>.cls-1{fill:#e51d25;}.cls-2,.cls-3{fill:#fff;}.cls-3{font-size:72px;font-family:Montserrat-Regular, Montserrat;}</style></defs><title>BTCN V2</title><g id="Layer_2" data-name="Layer 2"><g id="Layer_1-2" data-name="Layer 1"><circle class="cls-1" cx="280.31" cy="280.31" r="280.31"/><circle class="cls-2" cx="280.15" cy="279.15" r="193.96"/><path d="M389,284.55q-10-12.92-30.15-17.74,25.67-13.1,22.57-44.46a43.87,43.87,0,0,0-6.29-19.73,39.51,39.51,0,0,0-14.22-13.44,78.34,78.34,0,0,0-19.47-7.75,153.34,153.34,0,0,0-24.13-3.88V134.13H290.79v42.21q-6.9,0-21,.35V134.13H243.23v43.42q-5.68.18-16.72.17L190,177.55v28.26h19.13q13.09,0,15.33,11.72V267a17,17,0,0,1,2.76.17h-2.76v69.27q-1.37,8.79-10,8.79H195.33L190,376.75h34.47q3.27,0,9.48.08t9.3.09v43.94h26.54V377.44q7.25.18,21,.17v43.25h26.54V376.92a206.23,206.23,0,0,0,25.07-2.58,102.34,102.34,0,0,0,20.94-5.95,56.57,56.57,0,0,0,16.71-10.08A47.67,47.67,0,0,0,391.17,343a65.22,65.22,0,0,0,5.59-21.54Q399,297.49,389,284.55ZM270.28,207.7q1.22,0,6.81-.09c3.73-.05,6.84-.11,9.31-.17s5.8.09,10,.43a97.3,97.3,0,0,1,10.6,1.38,58.65,58.65,0,0,1,9.47,2.84,25.54,25.54,0,0,1,8.27,4.83,23.82,23.82,0,0,1,5.26,7.24,22.57,22.57,0,0,1,2.15,10.08A24.07,24.07,0,0,1,330.6,243a16.6,16.6,0,0,1-4.65,6.63,47.66,47.66,0,0,1-6.38,4.65,29.09,29.09,0,0,1-8.36,3.19q-5.08,1.22-8.87,1.9a72.66,72.66,0,0,1-9.48.94c-3.79.18-6.66.29-8.62.35s-4.62.06-8,0l-6-.09V207.7Zm72.47,117.35a24.62,24.62,0,0,1-4.23,6.9,23.82,23.82,0,0,1-6.8,5.16,58.41,58.41,0,0,1-8.19,3.62,67.13,67.13,0,0,1-9.56,2.42c-3.74.69-7,1.17-9.83,1.46s-6.17.52-10.08.69-6.95.26-9.13.26-4.94,0-8.27-.09-5.46-.08-6.38-.08V287.14q1.38,0,8.19-.17c4.54-.12,8.24-.17,11.11-.17s6.84.17,11.89.51a102.83,102.83,0,0,1,12.76,1.55,83.53,83.53,0,0,1,11.28,3.19,32.77,32.77,0,0,1,9.91,5.25,26,26,0,0,1,6.38,7.93,24.71,24.71,0,0,1,.95,19.82Z"/><text class="cls-3" transform="translate(92.91 176.91) rotate(-54.64)">B</text><text class="cls-3" transform="matrix(0.71, -0.7, 0.7, 0.71, 124.59, 134.8)">I</text><text class="cls-3" transform="matrix(0.81, -0.58, 0.58, 0.81, 140.67, 118.16)">T</text><text class="cls-3" transform="matrix(0.91, -0.4, 0.4, 0.91, 171.94, 94.92)">C</text><text class="cls-3" transform="translate(217.48 74.22) rotate(-9.14)">O</text><text class="cls-3" transform="translate(276.69 66.65) rotate(1.92)">I</text><text class="cls-3" transform="matrix(0.97, 0.22, -0.22, 0.97, 299.59, 65.83)">N</text><text class="cls-3" transform="translate(355.9 78.71) rotate(28.72)">O</text><text class="cls-3" transform="translate(406.71 107.75) rotate(42.14)">T</text><text class="cls-3" transform="matrix(0.58, 0.81, -0.81, 0.58, 438.01, 135.8)">E</text><text class="cls-3" transform="translate(167.94 517.7) rotate(19.61)">B</text><text class="cls-3" transform="translate(226.54 536.78) rotate(7.23)">T</text><text class="cls-3" transform="translate(273.72 542.56) rotate(-4.02)">C</text><text class="cls-3" transform="translate(335.39 537.22) rotate(-18.29)">N</text></g></g></svg>